<svg width="512" height="512" viewBox="0 0 512 512" fill="none" xmlns="http://www.w3.org/2000/svg">
<g clip-path="url(#clip0)">
<path d="M256 0C154.535 0 71.9873 82.548 71.9873 184.013C71.9873 216.184 81.4813 253.425 100.204 294.701C115.005 327.331 135.605 362.628 161.435 399.609C205.283 462.391 249.774 509.102 250.218 509.566C253.324 512.812 258.675 512.812 261.782 509.566C262.226 509.102 306.718 462.392 350.565 399.609C376.394 362.627 396.995 327.331 411.796 294.701C430.519 253.425 440.013 216.184 440.013 184.013C440.013 82.548 357.465 0 256 0Z" fill="#E15E56"/>
<path d="M193.437 391.644C167.608 354.662 147.007 319.366 132.206 286.736C113.483 245.46 103.989 208.219 103.989 176.048C103.989 95.6582 155.811 27.1552 227.799 2.16016C139.673 15.7712 71.9873 92.1352 71.9873 184.013C71.9873 216.184 81.4813 253.425 100.204 294.701C115.005 327.331 135.605 362.628 161.435 399.609C205.283 462.391 249.774 509.102 250.218 509.566C253.324 512.812 258.675 512.812 261.782 509.566C261.932 509.409 267.108 503.974 275.582 494.434C261.533 479.014 227.296 440.124 193.437 391.644Z" fill="#DE3A3A"/>
<path d="M256 48.0029C181.005 48.0029 119.99 109.016 119.99 184.013C119.99 259.01 181.004 320.023 256 320.023C330.996 320.023 392.01 259.01 392.01 184.013C392.01 109.016 330.995 48.0029 256 48.0029Z" fill="#FFB2A1"/>
<path d="M324.245 137.226L260.24 97.2226C257.646 95.6016 254.353 95.6016 251.759 97.2226L187.754 137.226C185.415 138.688 183.994 141.252 183.994 144.01V248.017C183.994 252.435 187.576 256.018 191.995 256.018H231.998C236.416 256.018 239.999 252.436 239.999 248.017V192.013H272.001V248.017C272.001 252.435 275.583 256.018 280.002 256.018H320.005C324.423 256.018 328.006 252.436 328.006 248.017V144.01C328.005 141.252 326.584 138.688 324.245 137.226Z" fill="white"/>
</g>
<defs>
<clipPath id="clip0">
<rect width="512" height="512" fill="white"/>
</clipPath>
</defs>
</svg>
